<svg xmlns="http://www.w3.org/2000/svg" viewBox="0 0 96 96" role="img" aria-label="Farm chicken">
  <rect width="96" height="96" fill="none"/>
  <ellipse cx="50" cy="56" rx="24" ry="20" fill="#fff6df" stroke="#6a5138" stroke-width="3"/>
  <circle cx="37" cy="50" r="4" fill="#3a2b20"/>
  <path d="M61 52l15 4-15 5z" fill="#f7a33d" stroke="#6a5138" stroke-width="2" stroke-linejoin="round"/>
  <circle cx="34" cy="36" r="12" fill="#fff6df" stroke="#6a5138" stroke-width="3"/>
  <circle cx="31" cy="35" r="2.8" fill="#3a2b20"/>
  <path d="M42 38l10 3-10 4z" fill="#f7a33d" stroke="#6a5138" stroke-width="2" stroke-linejoin="round"/>
  <path d="M28 23c2-5 8-6 11-2 3-4 9-3 10 2-4 5-17 5-21 0z" fill="#d74647" stroke="#6a5138" stroke-width="2" stroke-linejoin="round"/>
  <path d="M67 41c8 1 12 6 12 12-7-1-12-5-12-12z" fill="#f8e0b1" stroke="#6a5138" stroke-width="2" stroke-linejoin="round"/>
  <line x1="44" y1="74" x2="44" y2="86" stroke="#6a5138" stroke-width="3" stroke-linecap="round"/>
  <line x1="58" y1="74" x2="58" y2="86" stroke="#6a5138" stroke-width="3" stroke-linecap="round"/>
</svg>
