<svg xmlns="http://www.w3.org/2000/svg" viewBox="0 0 112 96" role="img" aria-label="Farm cat">
  <rect width="112" height="96" fill="none"/>
  <ellipse cx="56" cy="58" rx="26" ry="19" fill="#f5c688" stroke="#6a5138" stroke-width="3"/>
  <path d="M38 28l10 8-2-16z" fill="#f1b46f" stroke="#6a5138" stroke-width="3" stroke-linejoin="round"/>
  <path d="M74 28 64 36l2-16z" fill="#f1b46f" stroke="#6a5138" stroke-width="3" stroke-linejoin="round"/>
  <circle cx="56" cy="41" r="18" fill="#f7cf95" stroke="#6a5138" stroke-width="3"/>
  <circle cx="49" cy="40" r="2.8" fill="#34251c"/>
  <circle cx="63" cy="40" r="2.8" fill="#34251c"/>
  <path d="M56 45l-4 5h8z" fill="#d98e81" stroke="#6a5138" stroke-width="2" stroke-linejoin="round"/>
  <path d="M52 51c2 3 6 3 8 0" fill="none" stroke="#6a5138" stroke-width="2.5" stroke-linecap="round"/>
  <path d="M39 45H23m16 5H21m34-5h-8m8 5h-10" stroke="#6a5138" stroke-width="2" stroke-linecap="round"/>
  <path d="M74 45h15m-15 5h17m-36-5h8m-8 5h10" stroke="#6a5138" stroke-width="2" stroke-linecap="round"/>
  <path d="M80 58c11 1 18 8 18 17-9-1-16-4-20-12" fill="none" stroke="#6a5138" stroke-width="4" stroke-linecap="round"/>
  <line x1="47" y1="74" x2="47" y2="86" stroke="#6a5138" stroke-width="3" stroke-linecap="round"/>
  <line x1="65" y1="74" x2="65" y2="86" stroke="#6a5138" stroke-width="3" stroke-linecap="round"/>
</svg>
