<svg xmlns="http://www.w3.org/2000/svg" viewBox="0 0 110 96" role="img" aria-label="Farm cow">
  <rect width="110" height="96" fill="none"/>
  <rect x="23" y="34" width="58" height="34" rx="11" fill="#fffdf7" stroke="#5f4a36" stroke-width="3"/>
  <ellipse cx="91" cy="46" rx="14" ry="12" fill="#fffdf7" stroke="#5f4a36" stroke-width="3"/>
  <ellipse cx="92" cy="53" rx="10" ry="6" fill="#f4b5b8" stroke="#5f4a36" stroke-width="2"/>
  <circle cx="87" cy="46" r="2.5" fill="#2d261e"/>
  <circle cx="95" cy="46" r="2.5" fill="#2d261e"/>
  <path d="M82 36l-6-6 7-5z" fill="#f5d497" stroke="#5f4a36" stroke-width="2" stroke-linejoin="round"/>
  <path d="M99 36l6-6-7-5z" fill="#f5d497" stroke="#5f4a36" stroke-width="2" stroke-linejoin="round"/>
  <ellipse cx="42" cy="47" rx="9" ry="7" fill="#2f2922"/>
  <ellipse cx="61" cy="58" rx="8" ry="6" fill="#2f2922"/>
  <ellipse cx="56" cy="40" rx="6" ry="5" fill="#2f2922"/>
  <line x1="33" y1="67" x2="33" y2="87" stroke="#5f4a36" stroke-width="4" stroke-linecap="round"/>
  <line x1="48" y1="67" x2="48" y2="87" stroke="#5f4a36" stroke-width="4" stroke-linecap="round"/>
  <line x1="62" y1="67" x2="62" y2="87" stroke="#5f4a36" stroke-width="4" stroke-linecap="round"/>
  <line x1="75" y1="67" x2="75" y2="87" stroke="#5f4a36" stroke-width="4" stroke-linecap="round"/>
  <path d="M22 39c-4-2-7-7-4-11 5 1 7 5 8 9" fill="none" stroke="#5f4a36" stroke-width="3" stroke-linecap="round"/>
</svg>
